<svg width="100%" height="100%" viewBox="0 0 21 20" fill="none" xmlns="http://www.w3.org/2000/svg">
                          <path d="M15.6903 3.33333C14.8254 3.36603 13.969 3.51573 13.1444 3.77833C12.646 3.92449 12.1389 4.03944 11.6261 4.1225C11.4194 2.96787 10.8137 1.92253 9.91477 1.16903C9.01581 0.415534 7.88073 0.00177047 6.70775 0V1.66667C7.42962 1.6687 8.13121 1.9056 8.70655 2.34157C9.28189 2.77755 9.69972 3.38892 9.89692 4.08333C9.44374 4.00061 8.99419 3.89913 8.54942 3.77917C7.68855 3.52129 6.79894 3.37152 5.90109 3.33333C2.79942 3.33333 0.87442 5.8875 0.87442 10C0.87442 16.2583 4.26442 19.9992 7.54109 20H7.54275C8.25823 19.9613 8.96099 19.7948 9.61775 19.5083C10.0161 19.3293 10.4402 19.214 10.8744 19.1667C11.3095 19.2137 11.7344 19.329 12.1336 19.5083C12.7901 19.7947 13.4926 19.9612 14.2078 20C17.4828 19.9992 20.8744 16.2583 20.8744 10C20.8744 6.925 19.5161 3.33333 15.6903 3.33333ZM14.2078 18.3333C13.6923 18.2896 13.1879 18.1588 12.7161 17.9467C12.1338 17.689 11.5101 17.5378 10.8744 17.5C10.2399 17.5381 9.61735 17.6894 9.03609 17.9467C8.56321 18.1592 8.0577 18.2899 7.54109 18.3333H7.54275C5.08442 18.3325 2.54109 15.2158 2.54109 10C2.54109 8.49667 2.86859 5 5.90109 5C6.65879 5.04012 7.40876 5.17249 8.13442 5.39417C8.96113 5.64125 9.8144 5.78868 10.6761 5.83333H11.0853C11.9333 5.79285 12.7725 5.64271 13.5819 5.38667C14.2651 5.16755 14.9738 5.03759 15.6903 5C19.0378 5 19.2078 9.165 19.2078 10C19.2078 15.2158 16.6644 18.3325 14.2078 18.3333Z" fill="#9F5CF7"></path>
                          <path d="M12.5411 2.5H11.7078V1.66667C11.7078 1.22464 11.8834 0.800716 12.1959 0.488155C12.5085 0.175595 12.9324 0 13.3744 0H14.2078V0.833333C14.2078 1.27536 14.0322 1.69928 13.7196 2.01184C13.407 2.32441 12.9831 2.5 12.5411 2.5Z" fill="#9F5CF7"></path>
                        </svg>