<svg width="100%" height="100%" viewBox="0 0 24 20" fill="none" xmlns="http://www.w3.org/2000/svg">
                          <path d="M2.83982 20C2.26399 20 1.78357 19.8075 1.39857 19.4225C1.01357 19.0375 0.820658 18.5567 0.819824 17.98V5.77C0.819824 5.19417 1.01274 4.71375 1.39857 4.32875C1.78441 3.94375 2.26441 3.75084 2.83857 3.75H8.31982V2.01875C8.31982 1.44375 8.51274 0.963336 8.89857 0.577502C9.28441 0.191669 9.76482 -0.000830639 10.3398 2.69397e-06H13.8011C14.3761 2.69397e-06 14.8565 0.192503 15.2423 0.577502C15.6282 0.962502 15.8207 1.44292 15.8198 2.01875V3.75H21.3011C21.8761 3.75 22.3561 3.94292 22.7411 4.32875C23.1261 4.71458 23.319 5.195 23.3198 5.77V17.9812C23.3198 18.5562 23.1269 19.0367 22.7411 19.4225C22.3552 19.8083 21.8752 20.0008 21.3011 20H2.83982ZM9.56982 3.75H14.5698V2.01875C14.5698 1.82709 14.4898 1.65084 14.3298 1.49C14.1698 1.32917 13.9936 1.24917 13.8011 1.25H10.3386C10.1469 1.25 9.97066 1.33 9.80982 1.49C9.64899 1.65 9.56899 1.82625 9.56982 2.01875V3.75ZM22.0698 13.125H14.5698V15H9.56982V13.125H2.06982V17.9812C2.06982 18.1729 2.14982 18.3492 2.30982 18.51C2.46982 18.6708 2.64607 18.7508 2.83857 18.75H21.3011C21.4927 18.75 21.669 18.67 21.8298 18.51C21.9907 18.35 22.0707 18.1733 22.0698 17.98V13.125ZM10.8198 13.75H13.3198V11.25H10.8198V13.75ZM2.06982 11.875H9.56982V10H14.5698V11.875H22.0698V5.77C22.0698 5.5775 21.9898 5.40084 21.8298 5.24C21.6698 5.07917 21.4936 4.99917 21.3011 5H2.83857C2.64691 5 2.47066 5.08 2.30982 5.24C2.14899 5.4 2.06899 5.57667 2.06982 5.77V11.875Z" fill="#9F5CF7"></path>
                        </svg>