<svg width="100%" height="100%" viewBox="0 0 29 26" fill="none" xmlns="http://www.w3.org/2000/svg">
                            <path d="M12.8198 0C12.4641 0 12.1083 0.0821054 11.7662 0.205263L1.69458 4.37895C1.0251 4.6531 0.491895 5.1819 0.212192 5.84909C-0.0675124 6.51627 -0.0708164 7.26722 0.203006 7.93684L6.99037 24.2895C7.19086 24.7855 7.53231 25.2118 7.97252 25.5158C8.41272 25.8198 8.93237 25.9882 9.46722 26C9.82301 26 10.1925 25.9589 10.5483 25.7947L20.6335 21.6211C21.1203 21.4145 21.5376 21.0726 21.8359 20.636C22.1343 20.1994 22.3011 19.6865 22.3167 19.1579C22.3304 18.8158 22.262 18.4189 22.1388 18.0632L15.2967 1.71053C15.1039 1.20928 14.7644 0.777865 14.3225 0.472685C13.8806 0.167506 13.3569 0.00276434 12.8198 0ZM17.582 0L22.303 11.4263V2.73684C22.303 2.01099 22.0147 1.31486 21.5014 0.801602C20.9881 0.288345 20.292 0 19.5662 0M25.0535 2.10737V14.4642L28.3788 6.44526C28.5151 6.11379 28.5847 5.75866 28.5835 5.40024C28.5822 5.04182 28.5103 4.68717 28.3717 4.35663C28.2331 4.02608 28.0307 3.72615 27.7759 3.47402C27.5212 3.22189 27.2192 3.02253 26.8872 2.88737M12.8198 2.69579L19.6346 19.1442L9.52195 23.3316L2.70722 6.89684" fill="#9F5CF7"></path>
                          </svg>