<svg width="100%" height="100%" viewBox="0 0 22 22" fill="none" xmlns="http://www.w3.org/2000/svg">
                          <path d="M18.8775 5.5355C17.5675 7.3475 15.6265 9.3955 13.9325 11.1105L13.8415 11.2025L11.1515 8.5125L11.2495 8.4145C12.9395 6.7045 14.9815 4.7585 16.7935 3.4525C17.7045 2.7955 18.5085 2.3375 19.1465 2.1345C19.7985 1.9275 20.0615 2.0435 20.1855 2.1675C20.2985 2.2805 20.4165 2.5345 20.2045 3.1875C19.9975 3.8225 19.5365 4.6235 18.8775 5.5355ZM10.1355 9.6185L12.7405 12.2235C11.8605 12.9775 11.0565 13.5175 10.3625 13.8785C9.92226 13.083 9.26646 12.4279 8.47047 11.9885C8.83047 11.2985 9.37347 10.5065 10.1355 9.6185ZM7.04947 11.4745C6.27416 11.3251 5.47404 11.368 4.71917 11.5995C3.9643 11.831 3.27769 12.2441 2.71947 12.8025C2.19447 13.3275 1.83947 14.1045 1.58947 14.8815C1.33347 15.6765 1.15947 16.5635 1.04847 17.3885C0.947613 18.1232 0.889848 18.8631 0.875475 19.6045C0.871475 19.9045 0.878475 20.1715 0.897475 20.3825C0.906475 20.4865 0.919475 20.5945 0.941475 20.6925C0.951475 20.7425 0.968475 20.8055 0.994475 20.8725C1.01447 20.9235 1.06847 21.0505 1.18447 21.1675C1.30147 21.2845 1.42947 21.3375 1.48147 21.3575C1.54747 21.3835 1.61147 21.4005 1.65947 21.4115C1.75847 21.4325 1.86647 21.4465 1.96947 21.4555C2.18047 21.4745 2.44847 21.4805 2.74847 21.4765C3.35147 21.4685 4.13847 21.4165 4.96447 21.3045C5.78947 21.1925 6.67547 21.0195 7.47147 20.7645C8.24747 20.5145 9.02447 20.1585 9.55047 19.6325C10.1092 19.0739 10.5223 18.3867 10.7537 17.6313C10.985 16.8758 11.0275 16.0752 10.8775 15.2995C12.0865 14.6995 13.4995 13.6815 14.9985 12.1645C16.6925 10.4505 18.7075 8.3295 20.0915 6.4145C20.7795 5.4625 21.3495 4.5105 21.6295 3.6505C21.9035 2.8085 21.9635 1.8245 21.2455 1.1065C20.5255 0.387497 19.5425 0.434497 18.6905 0.705497C17.8255 0.980497 16.8685 1.5485 15.9145 2.2355C13.9945 3.6195 11.8785 5.6425 10.1815 7.3605C8.68147 8.8785 7.65147 10.2565 7.04947 11.4745ZM8.48947 13.8625C8.79879 14.1717 9.04416 14.5389 9.21157 14.9429C9.37898 15.347 9.46514 15.7801 9.46514 16.2175C9.46514 16.6549 9.37898 17.088 9.21157 17.4921C9.04416 17.8961 8.79879 18.2633 8.48947 18.5725C8.21847 18.8425 7.71547 19.1095 7.01147 19.3355C6.32747 19.5555 5.53447 19.7135 4.76347 19.8175C3.99447 19.9215 3.26847 19.9695 2.72847 19.9775C2.61147 19.9791 2.49445 19.9784 2.37747 19.9755C2.37454 19.8589 2.37387 19.7422 2.37547 19.6255C2.38247 19.0835 2.43047 18.3585 2.53547 17.5895C2.63947 16.8185 2.79647 16.0255 3.01647 15.3405C3.24347 14.6375 3.50947 14.1345 3.78047 13.8625C4.08971 13.5532 4.45684 13.3078 4.86092 13.1404C5.265 12.973 5.69809 12.8868 6.13547 12.8868C6.57286 12.8868 7.00595 12.973 7.41003 13.1404C7.8141 13.3078 8.18124 13.5532 8.49047 13.8625H8.48947Z" fill="#9F5CF7"></path>
                        </svg>