<svg width="100%" height="100%" viewBox="0 0 30 30" fill="none" xmlns="http://www.w3.org/2000/svg">
                            <path d="M25.2989 11.9318L26.504 10.7267C27.4627 9.76798 28.0013 8.46774 28.0013 7.11196C28.0013 5.75618 27.4627 4.45594 26.504 3.49726C25.5454 2.53858 24.2451 2 22.8893 2C21.5336 2 20.2333 2.53858 19.2746 3.49726L18.0695 4.70238L6.99076 15.7785C6.24065 16.5299 5.86495 16.9056 5.54254 17.3191C5.16215 17.8072 4.83568 18.335 4.56883 18.8934C4.34393 19.3666 4.17623 19.871 3.84082 20.8772L2.4186 25.1426M25.2989 11.9318C25.2989 11.9318 22.7392 11.781 20.4798 9.52154C18.2203 7.26341 18.0708 4.70238 18.0708 4.70238M25.2989 11.9318L14.2215 23.0079C13.4714 23.758 13.0957 24.1338 12.6822 24.4562C12.1941 24.8366 11.6663 25.163 11.1079 25.4299C10.6347 25.6548 10.1316 25.8225 9.1241 26.1579L4.85873 27.5801M4.85873 27.5801L3.81612 27.9285C3.57309 28.01 3.31214 28.0221 3.06261 27.9634C2.81308 27.9047 2.58487 27.7776 2.40361 27.5964C2.22236 27.4151 2.09525 27.1869 2.03658 26.9374C1.97791 26.6879 1.99 26.4269 2.0715 26.1839L2.4199 25.1413L4.85873 27.5801Z" stroke="#9F5CF7" stroke-width="3"></path>
                          </svg>