<svg width="100%" height="100%" viewBox="0 0 38 38" fill="none" xmlns="http://www.w3.org/2000/svg">
                          <path d="M13.7197 0.0194448C13.5118 0.0530027 13.3064 0.100406 13.1049 0.16134C12.0379 0.401624 11.0872 1.00424 10.4145 1.86661C9.74187 2.72898 9.38886 3.79781 9.41558 4.89117V14.3508C9.41558 15.6053 9.9139 16.8083 10.8009 17.6953C11.6879 18.5823 12.891 19.0807 14.1454 19.0807C15.3998 19.0807 16.6029 18.5823 17.4899 17.6953C18.3769 16.8083 18.8752 15.6053 18.8752 14.3508V4.89117C18.8981 4.22072 18.7781 3.55306 18.5232 2.93254C18.2683 2.31201 17.8843 1.75281 17.3967 1.29206C16.9091 0.831307 16.3291 0.479549 15.6951 0.260137C15.0612 0.0407245 14.3878 -0.0413218 13.7197 0.0194448ZM1.61136 9.621C1.12187 9.78555 0.699688 10.1058 0.409306 10.5328C0.118923 10.9599 -0.0237014 11.4702 0.00321619 11.9859V14.3508C0.00321619 21.351 5.15873 27.0741 11.8278 28.2565V33.2702H9.46288C6.86147 33.2702 4.73305 35.3986 4.73305 38H23.6997C23.6997 35.3986 21.5713 33.2702 18.9698 33.2702H16.6049V28.2565C23.274 27.1214 28.4295 21.351 28.4295 14.3508V11.9859C28.4295 11.3587 28.1803 10.7572 27.7368 10.3137C27.2933 9.87016 26.6918 9.621 26.0646 9.621C25.4374 9.621 24.8358 9.87016 24.3923 10.3137C23.9488 10.7572 23.6997 11.3587 23.6997 11.9859V14.3508C23.6997 19.601 19.4901 23.8105 14.24 23.8105C8.9899 23.8105 4.78035 19.601 4.78035 14.3508V11.9859C4.78607 11.6361 4.71409 11.2893 4.56958 10.9706C4.42508 10.6519 4.21166 10.3693 3.94472 10.1431C3.67777 9.91683 3.36395 9.75266 3.02588 9.66238C2.68782 9.57211 2.33393 9.55797 1.98975 9.621C1.89523 9.61532 1.80047 9.61532 1.70596 9.621H1.61136Z" fill="#9F5CF7"></path>
                        </svg>