<svg width="100%" height="100%" viewBox="0 0 24 19" fill="none" xmlns="http://www.w3.org/2000/svg">
                          <path d="M2.12532 2.80147C3.40852 2.26499 5.2485 1.68647 7.03772 1.50667C8.96614 1.31238 10.6017 1.59802 11.5499 2.59703V16.7281C10.1942 15.9597 8.47606 15.8538 6.89128 16.0133C5.18035 16.1873 3.45492 16.6817 2.12532 17.1892V2.80147ZM12.9999 2.59703C13.9481 1.59802 15.5837 1.31238 17.5121 1.50667C19.3013 1.68647 21.1413 2.26499 22.4245 2.80147V17.1892C21.0934 16.6817 19.3695 16.1859 17.6585 16.0148C16.0723 15.8538 14.3556 15.9582 12.9999 16.7281V2.59703ZM12.2749 1.28628C10.8467 0.0581844 8.7762 -0.124508 6.89128 0.0639842C4.69607 0.285825 2.48056 1.03834 1.10022 1.66617C0.973563 1.72377 0.866161 1.8166 0.79083 1.93358C0.7155 2.05057 0.675423 2.18675 0.675385 2.32589V18.2752C0.675418 18.3965 0.705887 18.5159 0.764001 18.6224C0.822114 18.7288 0.906014 18.819 1.00802 18.8847C1.11002 18.9503 1.22686 18.9893 1.34784 18.9981C1.46882 19.0069 1.59008 18.9852 1.70049 18.935C2.97934 18.355 5.0397 17.6576 7.03627 17.456C9.07924 17.2501 10.7916 17.5822 11.7094 18.7276C11.7774 18.8123 11.8634 18.8806 11.9613 18.9276C12.0592 18.9745 12.1664 18.9989 12.2749 18.9989C12.3835 18.9989 12.4906 18.9745 12.5885 18.9276C12.6864 18.8806 12.7725 18.8123 12.8404 18.7276C13.7582 17.5822 15.4706 17.2501 17.5121 17.456C19.5101 17.6576 21.5719 18.355 22.8493 18.935C22.9597 18.9852 23.081 19.0069 23.202 18.9981C23.3229 18.9893 23.4398 18.9503 23.5418 18.8847C23.6438 18.819 23.7277 18.7288 23.7858 18.6224C23.8439 18.5159 23.8744 18.3965 23.8744 18.2752V2.32589C23.8744 2.18675 23.8343 2.05057 23.759 1.93358C23.6836 1.8166 23.5762 1.72377 23.4496 1.66617C22.0692 1.03834 19.8537 0.285825 17.6585 0.0639842C15.7736 -0.125958 13.7031 0.0581844 12.2749 1.28628Z" fill="#9F5CF7"></path>
                        </svg>