<svg width="100%" height="100%" viewBox="0 0 26 26" fill="none" xmlns="http://www.w3.org/2000/svg">
                            <path d="M13 21.125C13.4604 21.125 13.8602 20.956 14.1992 20.618C14.5383 20.28 14.7073 19.8802 14.7062 19.4187C14.7052 18.9572 14.5362 18.558 14.1992 18.2211C13.8623 17.8842 13.4626 17.7147 13 17.7125C12.5374 17.7103 12.1382 17.8799 11.8024 18.2211C11.4665 18.5624 11.297 18.9616 11.2937 19.4187C11.2905 19.8759 11.46 20.2757 11.8024 20.618C12.1447 20.9603 12.5439 21.1293 13 21.125ZM11.7812 15.925H14.2187C14.2187 15.1396 14.3 14.5643 14.4625 14.1992C14.625 13.8342 15.0042 13.3532 15.6 12.7562C16.4125 11.9437 16.9542 11.2872 17.225 10.7867C17.4958 10.2862 17.6312 9.69692 17.6312 9.01875C17.6312 7.8 17.2044 6.80496 16.3507 6.03362C15.4971 5.26229 14.3802 4.87608 13 4.875C11.8896 4.875 10.9216 5.18646 10.0961 5.80937C9.27063 6.43229 8.69483 7.25833 8.36875 8.2875L10.5625 9.18125C10.8062 8.50417 11.1383 7.99662 11.5586 7.65862C11.979 7.32062 12.4594 7.15108 13 7.15C13.65 7.15 14.1781 7.33308 14.5844 7.69925C14.9906 8.06542 15.1937 8.55942 15.1937 9.18125C15.1937 9.56042 15.0854 9.91954 14.8687 10.2586C14.6521 10.5977 14.2729 11.024 13.7312 11.5375C12.8375 12.3229 12.2893 12.9393 12.0867 13.3867C11.8842 13.8342 11.7823 14.6802 11.7812 15.925ZM3.25 26C2.35625 26 1.59142 25.682 0.955499 25.0461C0.319583 24.4102 0.00108333 23.6448 0 22.75V3.25C0 2.35625 0.318499 1.59142 0.955499 0.9555C1.5925 0.319583 2.35733 0.00108333 3.25 0H22.75C23.6437 0 24.4091 0.3185 25.0461 0.9555C25.6831 1.5925 26.0011 2.35733 26 3.25V22.75C26 23.6437 25.682 24.4091 25.0461 25.0461C24.4102 25.6831 23.6448 26.0011 22.75 26H3.25ZM3.25 22.75H22.75V3.25H3.25V22.75Z" fill="#9F5CF7"></path>
                          </svg>