<svg width="100%" height="100%" viewBox="0 0 20 6" fill="none" xmlns="http://www.w3.org/2000/svg">
                            <path d="M2.41667 0.833252C1.225 0.833252 0.25 1.80825 0.25 2.99992C0.25 4.19159 1.225 5.16659 2.41667 5.16659C3.60833 5.16659 4.58333 4.19159 4.58333 2.99992C4.58333 1.80825 3.60833 0.833252 2.41667 0.833252ZM17.5833 0.833252C16.3917 0.833252 15.4167 1.80825 15.4167 2.99992C15.4167 4.19159 16.3917 5.16659 17.5833 5.16659C18.775 5.16659 19.75 4.19159 19.75 2.99992C19.75 1.80825 18.775 0.833252 17.5833 0.833252ZM10 0.833252C8.80833 0.833252 7.83333 1.80825 7.83333 2.99992C7.83333 4.19159 8.80833 5.16659 10 5.16659C11.1917 5.16659 12.1667 4.19159 12.1667 2.99992C12.1667 1.80825 11.1917 0.833252 10 0.833252Z" fill="#9F5CF7"></path>
                          </svg>